<svg width="160" height="227" viewBox="0 0 160 227" fill="none" xmlns="http://www.w3.org/2000/svg">
<path d="M4.50003 62.5C10.1 28.1 52.5 1 78.0001 2.49997C90 5.00001 96.9999 3 123 16C150.074 29.5369 157.244 71.8781 158 86C159.5 114 113.5 183.5 86.5001 216.5L80.5001 224C79.5001 222.333 70.5001 212.2 52.5001 189C30.0001 160 -2.49997 105.5 4.50003 62.5Z" fill="white" stroke="black"/>
<path d="M80.2 3C37.2999 3 3.09998 37.1 3.09998 80.1C3.09998 137.3 80.2 223.2 80.2 223.2C80.2 223.2 157.3 137.3 157.3 80.1C157.3 37.1 123.2 3 80.2 3Z" stroke="#989A9D" stroke-width="5" stroke-miterlimit="10"/>
<path d="M80 119C105.405 119 126 98.8528 126 74C126 49.1472 105.405 29 80 29C54.5949 29 34 49.1472 34 74C34 98.8528 54.5949 119 80 119Z" fill="#BD6B60"/>
<path d="M101.369 87.643V62.5575H97.4327L94.7335 72.2396C94.5085 72.8998 93.6088 73.0098 93.2714 72.4597C89.6724 66.8484 84.9486 63.6577 77.0758 63.7677V77.5208H62.6797V60.467H58.6307V87.643H63.467V82.5819H97.3203V87.643H101.369Z" fill="white"/>
<path d="M69.5402 74.11C72.5218 74.11 74.9388 71.7456 74.9388 68.8288C74.9388 65.9121 72.5218 63.5477 69.5402 63.5477C66.5587 63.5477 64.1417 65.9121 64.1417 68.8288C64.1417 71.7456 66.5587 74.11 69.5402 74.11Z" fill="white"/>
</svg>
