<svg width="123" height="29" viewBox="0 0 123 29" fill="none" xmlns="http://www.w3.org/2000/svg">
<path d="M15.8646 23.1549L15.2683 28H0.0621899L3.41647 0.848938H9.49145L6.73349 23.1549H15.8646ZM43.8874 12.6821C43.8874 14.1481 43.7135 15.5519 43.3656 16.8936C43.0302 18.2353 42.5457 19.4838 41.9121 20.6392C41.291 21.7946 40.5331 22.8443 39.6387 23.7885C38.7566 24.7327 37.7627 25.5402 36.6571 26.211C35.5514 26.8695 34.3526 27.385 33.0605 27.7577C31.7685 28.118 30.4082 28.2982 28.9795 28.2982C27.1905 28.2982 25.5817 27.9876 24.153 27.3664C22.7368 26.7328 21.5317 25.8756 20.5379 24.7948C19.544 23.7015 18.78 22.422 18.2458 20.956C17.724 19.4776 17.4631 17.8875 17.4631 16.1855C17.4631 14.7195 17.6308 13.3157 17.9663 11.974C18.3141 10.6198 18.7986 9.36509 19.4198 8.20973C20.0534 7.05436 20.8174 6.00459 21.7119 5.06043C22.6064 4.11626 23.6064 3.31496 24.7121 2.65652C25.8178 1.98567 27.0166 1.4701 28.3086 1.10983C29.6007 0.737128 30.9672 0.550779 32.4083 0.550779C34.1848 0.550779 35.7812 0.867572 37.1975 1.50116C38.6262 2.12232 39.8312 2.97953 40.8127 4.07278C41.8065 5.16602 42.5643 6.45183 43.0861 7.9302C43.6203 9.40857 43.8874 10.9925 43.8874 12.6821ZM37.6634 12.8312C37.6634 11.7131 37.5267 10.7006 37.2534 9.79369C36.9925 8.87437 36.6012 8.09171 36.0794 7.44569C35.57 6.78726 34.9427 6.28412 34.1973 5.93627C33.4519 5.57599 32.6071 5.39585 31.6629 5.39585C30.4206 5.39585 29.3087 5.65674 28.3273 6.17852C27.3458 6.68788 26.5073 7.40843 25.8116 8.34017C25.1283 9.27192 24.6003 10.3962 24.2276 11.7131C23.8673 13.0175 23.6872 14.4648 23.6872 16.055C23.6872 17.1731 23.8176 18.1856 24.0785 19.0925C24.3394 19.9994 24.7183 20.7759 25.2152 21.4219C25.7246 22.0679 26.352 22.571 27.0974 22.9313C27.8428 23.2792 28.6938 23.4531 29.6503 23.4531C30.8927 23.4531 32.0046 23.1984 32.986 22.6891C33.9799 22.1797 34.8184 21.4591 35.5017 20.5274C36.1974 19.5957 36.7316 18.4776 37.1043 17.1731C37.477 15.8687 37.6634 14.4214 37.6634 12.8312ZM70.2657 12.6821C70.2657 14.1605 70.098 15.5643 69.7626 16.8936C69.4271 18.2105 68.9488 19.4404 68.3277 20.5833C67.7065 21.7138 66.9487 22.7387 66.0542 23.6581C65.1722 24.565 64.1783 25.3414 63.0726 25.9874C61.9794 26.6334 60.7805 27.1304 59.4761 27.4782C58.1841 27.8261 56.8237 28 55.3951 28H45.6304L48.9846 0.848938H58.7493C60.5259 0.848938 62.1223 1.15331 63.5385 1.76205C64.9672 2.35836 66.1785 3.18451 67.1723 4.24049C68.1662 5.29647 68.9302 6.54501 69.4644 7.98611C69.9986 9.42721 70.2657 10.9925 70.2657 12.6821ZM64.0417 12.8312C64.0417 11.7255 63.9112 10.7254 63.6503 9.83096C63.4019 8.92406 63.0229 8.15382 62.5136 7.52023C62.0167 6.88665 61.4017 6.39593 60.6687 6.04808C59.9358 5.70022 59.0972 5.5263 58.153 5.5263H54.5006L52.3389 23.3226H55.9914C57.2337 23.3226 58.3518 23.0804 59.3457 22.5959C60.3395 22.0989 61.1843 21.397 61.88 20.4901C62.5757 19.5832 63.1099 18.4838 63.4826 17.1918C63.8553 15.8997 64.0417 14.4462 64.0417 12.8312ZM85.7694 14.0425H94.8259L93.4097 25.3911C92.714 25.9005 91.9934 26.3415 91.248 26.7142C90.5026 27.0745 89.72 27.3726 88.9 27.6087C88.0925 27.8447 87.2353 28.0186 86.3284 28.1304C85.4339 28.2423 84.4774 28.2982 83.4586 28.2982C81.7815 28.2982 80.2472 27.9938 78.8558 27.385C77.4768 26.7639 76.2904 25.9129 75.2966 24.8321C74.3151 23.7512 73.5511 22.4716 73.0045 20.9933C72.4703 19.5149 72.2032 17.9123 72.2032 16.1855C72.2032 14.6823 72.3709 13.2536 72.7063 11.8994C73.0542 10.5329 73.5449 9.27192 74.1785 8.11655C74.812 6.96119 75.5699 5.91763 76.4519 4.98589C77.3464 4.05414 78.334 3.25905 79.4149 2.60062C80.5081 1.94219 81.6821 1.43904 82.9369 1.09119C84.1916 0.730916 85.5085 0.550779 86.8875 0.550779C88.0428 0.550779 89.0864 0.656376 90.0181 0.867571C90.9623 1.07877 91.8071 1.3645 92.5525 1.72478C93.2979 2.07263 93.9625 2.4826 94.5464 2.95468C95.1303 3.41434 95.6459 3.89264 96.0931 4.38957L94.1178 6.83074C93.7948 7.26556 93.4097 7.53266 92.9624 7.63204C92.5152 7.71901 92.0555 7.61341 91.5835 7.31525C91.1487 7.01709 90.7387 6.76241 90.3536 6.55122C89.9684 6.3276 89.5771 6.14746 89.1796 6.01081C88.782 5.86173 88.3596 5.75613 87.9124 5.69401C87.4776 5.61947 86.9869 5.5822 86.4402 5.5822C85.26 5.5822 84.1792 5.83688 83.1978 6.34623C82.2163 6.84317 81.3715 7.55129 80.6634 8.47061C79.9553 9.37751 79.4024 10.4708 79.0049 11.7504C78.6198 13.03 78.4272 14.44 78.4272 15.9805C78.4272 17.1731 78.5701 18.2477 78.8558 19.2043C79.154 20.1485 79.5702 20.9498 80.1044 21.6082C80.6386 22.2542 81.2784 22.7512 82.0238 23.099C82.7692 23.4469 83.5953 23.6208 84.5022 23.6208C85.2476 23.6208 85.9185 23.5587 86.5148 23.4344C87.1111 23.2978 87.6826 23.1114 88.2292 22.8754L88.751 18.4403H86.4402C86.0675 18.4403 85.7818 18.3471 85.583 18.1608C85.3967 17.962 85.3221 17.7073 85.3594 17.3967L85.7694 14.0425ZM122.585 0.848938L119.23 28H116.062C115.59 28 115.205 27.9255 114.907 27.7764C114.621 27.6149 114.348 27.354 114.087 26.9937L104.602 10.2223C104.565 10.9428 104.509 11.5889 104.434 12.1603L102.571 28H97.2039L100.558 0.848938H103.763C104.024 0.848938 104.242 0.861361 104.416 0.886207C104.602 0.898629 104.763 0.942111 104.9 1.01665C105.037 1.07877 105.161 1.17194 105.273 1.29617C105.385 1.42041 105.503 1.58191 105.627 1.78068L115.149 18.5521C115.187 18.1173 115.224 17.7011 115.261 17.3036C115.298 16.906 115.342 16.5333 115.392 16.1855L117.218 0.848938H122.585Z" fill="#323232"/>
</svg>
