<svg width="155" height="221" viewBox="0 0 155 221" fill="none" xmlns="http://www.w3.org/2000/svg">
    <path d="M77.2 0C34.2999 0 0.0999756 34.1 0.0999756 77.1C0.0999756 134.3 77.2 220.2 77.2 220.2C77.2 220.2 154.3 134.3 154.3 77.1C154.3 34.1 120.2 0 77.2 0Z" fill="#1A4047"/>
    <path d="M77 116C102.405 116 123 95.8528 123 71C123 46.1472 102.405 26 77 26C51.5949 26 31 46.1472 31 71C31 95.8528 51.5949 116 77 116Z" fill="#76C483"/>
    <path d="M98.3691 84.643V59.5575H94.4327L91.7335 69.2396C91.5085 69.8998 90.6088 70.0098 90.2714 69.4597C86.6724 63.8484 81.9486 60.6577 74.0758 60.7677V74.5208H59.6797V57.467H55.6307V84.643H60.467V79.5819H94.3203V84.643H98.3691Z" fill="white"/>
    <path d="M66.5402 71.11C69.5218 71.11 71.9388 68.7456 71.9388 65.8288C71.9388 62.9121 69.5218 60.5477 66.5402 60.5477C63.5587 60.5477 61.1417 62.9121 61.1417 65.8288C61.1417 68.7456 63.5587 71.11 66.5402 71.11Z" fill="white"/>
</svg>
