<svg width="384" height="147" viewBox="0 0 384 147" fill="none" xmlns="http://www.w3.org/2000/svg">
<path fill-rule="evenodd" clip-rule="evenodd" d="M52.5 0C24.0573 0 1 23.0573 1 51.5C1 79.9427 24.0573 103 52.5 103H157.5L168.5 111L192 145L222 106L230.667 103H330.5C358.943 103 382 79.9427 382 51.5C382 23.0573 358.943 0 330.5 0H52.5Z" fill="white"/>
<path d="M332.4 4C358.3 4 379.4 25.1 379.4 51V54.7C379.4 80.6 358.3 101.7 332.4 101.7H234.3C226.2 101.7 218.5 105.6 213.7 112.1L213.6 112.2L213.5 112.3L194.2 141.8C193.5 142.8 192.5 142.9 192 142.9C191.5 142.9 190.4 142.8 189.7 141.7L173.3 113.5L173.2 113.4L173.1 113.3C168.4 106.1 160.4 101.7 151.7 101.7H51C25.1 101.7 4 80.6 4 54.7V51C4 25.1 25.1 4 51 4H332.4ZM332.4 0H51C22.8 0 0 22.8 0 51V54.7C0 82.9 22.8 105.7 51 105.7H151.8C159.1 105.7 165.8 109.4 169.8 115.5L186.2 143.8C187.5 145.9 189.7 146.9 191.9 146.9C194 146.9 196 146 197.4 144.1L216.8 114.5C220.9 109 227.3 105.7 234.2 105.7H332.3C360.5 105.7 383.3 82.9 383.3 54.7V51C383.5 22.8 360.6 0 332.4 0Z" fill="#989A9D"/>
<path d="M55.9 93.8C78.4884 93.8 96.8 75.4884 96.8 52.9C96.8 30.3116 78.4884 12 55.9 12C33.3115 12 15 30.3116 15 52.9C15 75.4884 33.3115 93.8 55.9 93.8Z" fill="#BD6B60"/>
<path d="M74.9 65.3V42.5H71.4L69 51.3C68.8 51.9 68 52 67.7 51.5C64.5 46.4 60.3 43.5 53.3 43.6V56.1H40.5V40.6H36.9V65.3H41.2V60.7H71.3V65.3H74.9Z" fill="white"/>
<path d="M46.6 53C49.251 53 51.4 50.851 51.4 48.2C51.4 45.549 49.251 43.4 46.6 43.4C43.9491 43.4 41.8 45.549 41.8 48.2C41.8 50.851 43.9491 53 46.6 53Z" fill="white"/>
</svg>
